# xmcd
#
# Track frame offsets:
#	150
#	17362
#	35722
#	50767
#	65047
#	81447
#	101397
#	116760
#	134352
#	151215
#	165872
#	180982
#	200510
#	211355
#	231790
#	249695
#	265455
#	266130
#	266805
#	267562
#	268702
#	269715
#	270762
#	271897
#	273130
#	274422
#	275467
#	276557
#	277572
#	278792
#	280132
#	281107
#	282305
#	283517
#	284585
#
# Disc length: 3807 seconds
#
# Revision: 0
# Processed by: cddbd v1.5.2PL0 Copyright (c) Steve Scherf et al.
# Submitted via: EZCDAudioConverter 2.3.0.1
#
DISCID=3c0edd23
DTITLE=GoldDisc 1193
DYEAR=1900
DGENRE=
TTITLE0=Brad Paisley - Who Needs Pictures
TTITLE1=Lonestar - Amazed
TTITLE2=Chely Wright - Single White Female
TTITLE3=Shane Minor - Slave To The Habit
TTITLE4=Mark Chesnutt - This Heartache Never Sleeps (single)
TTITLE5=Trisha Yearwood - I'll Still Love You More
TTITLE6=Jo Dee Messina - Lesson In Leavin' (short ver)
TTITLE7=Kenny Chesney - You Had Me From Hello
TTITLE8=Mary Chapin Carpenter - Almost Home
TTITLE9=Kenny Rogers - The Greatest
TTITLE10=Alabama - God Must Have Spent A Little More Time On You (single)
TTITLE11=Faith Hill - The Secret Of life (LP)
TTITLE12=Dwight Yoakam - Crazy Little Thing Called Love (LP)
TTITLE13=Alan Jackson - Little Man
TTITLE14=Vince Gill With Patty Loveless - My Kind Of Woman/My Kind Of Man
TTITLE15=Shania Twain - You've Got A Way (LP)
TTITLE16= -
TTITLE17= -
TTITLE18= -
TTITLE19= -
TTITLE20= -
TTITLE21= -
TTITLE22= -
TTITLE23= -
TTITLE24= -
TTITLE25= -
TTITLE26= -
TTITLE27= -
TTITLE28= -
TTITLE29= -
TTITLE30= -
TTITLE31= -
TTITLE32= -
TTITLE33= -
TTITLE34= -
EXTD=
EXTT0=
EXTT1=
EXTT2=
EXTT3=
EXTT4=
EXTT5=
EXTT6=
EXTT7=
EXTT8=
EXTT9=
EXTT10=
EXTT11=
EXTT12=
EXTT13=
EXTT14=
EXTT15=
EXTT16=
EXTT17=
EXTT18=
EXTT19=
EXTT20=
EXTT21=
EXTT22=
EXTT23=
EXTT24=
EXTT25=
EXTT26=
EXTT27=
EXTT28=
EXTT29=
EXTT30=
EXTT31=
EXTT32=
EXTT33=
EXTT34=
PLAYORDER=
